<svg width="17" height="17" viewBox="0 0 17 17" fill="none" xmlns="http://www.w3.org/2000/svg">
<path fill-rule="evenodd" clip-rule="evenodd" d="M1.59375 8.5C1.59375 4.68562 4.68562 1.59375 8.5 1.59375C12.3144 1.59375 15.4062 4.68562 15.4062 8.5C15.4062 12.3144 12.3144 15.4062 8.5 15.4062C4.68562 15.4062 1.59375 12.3144 1.59375 8.5ZM11.0571 7.21508C11.0996 7.15845 11.1303 7.0939 11.1475 7.02521C11.1647 6.95653 11.168 6.8851 11.1572 6.81513C11.1464 6.74515 11.1217 6.67804 11.0846 6.61774C11.0475 6.55745 10.9987 6.50517 10.9411 6.464C10.8835 6.42283 10.8182 6.39359 10.7492 6.378C10.6801 6.3624 10.6086 6.36077 10.5389 6.3732C10.4692 6.38563 10.4027 6.41187 10.3433 6.45037C10.2839 6.48888 10.2327 6.53887 10.1929 6.59742L7.90075 9.80617L6.75042 8.65583C6.64971 8.56199 6.51651 8.51091 6.37888 8.51333C6.24125 8.51576 6.10994 8.57152 6.0126 8.66885C5.91527 8.76619 5.85951 8.8975 5.85708 9.03513C5.85466 9.17276 5.90574 9.30596 5.99958 9.40667L7.59333 11.0004C7.64787 11.0549 7.71361 11.0969 7.78599 11.1234C7.85837 11.15 7.93567 11.1604 8.0125 11.1541C8.08933 11.1477 8.16387 11.1248 8.23092 11.0867C8.29798 11.0487 8.35596 10.9965 8.40083 10.9338L11.0571 7.21508Z" fill="#32247B"/>
</svg>
