<svg width="15" height="15" viewBox="0 0 15 15" fill="none" xmlns="http://www.w3.org/2000/svg">
<path d="M7.16868 2.40007C7.25657 2.31229 7.37571 2.26298 7.49993 2.26298C7.62415 2.26298 7.74329 2.31229 7.83118 2.40007L13.2624 7.83132C13.3053 7.87738 13.3571 7.91431 13.4146 7.93993C13.4721 7.96555 13.5342 7.97933 13.5971 7.98044C13.66 7.98155 13.7226 7.96997 13.7809 7.9464C13.8393 7.92282 13.8923 7.88773 13.9368 7.84322C13.9813 7.79871 14.0164 7.74569 14.04 7.68732C14.0636 7.62895 14.0752 7.56643 14.074 7.50349C14.0729 7.44056 14.0592 7.37848 14.0335 7.32098C14.0079 7.26349 13.971 7.21173 13.9249 7.16882L8.4943 1.73757C8.36372 1.60699 8.2087 1.5034 8.03808 1.43273C7.86747 1.36206 7.6846 1.32568 7.49993 1.32568C7.31526 1.32568 7.13239 1.36206 6.96178 1.43273C6.79116 1.5034 6.63614 1.60699 6.50555 1.73757L1.0743 7.16882C0.988958 7.25727 0.941765 7.3757 0.942891 7.4986C0.944016 7.62151 0.99337 7.73905 1.08032 7.82592C1.16727 7.91279 1.28486 7.96203 1.40777 7.96304C1.53068 7.96405 1.64906 7.91675 1.73743 7.83132L7.16868 2.40007Z" fill="currentColor"/>
<path d="M7.5 3.39505L12.5994 8.49442C12.6181 8.51317 12.6369 8.53067 12.6562 8.54817V12.4219C12.6562 13.0688 12.1312 13.5938 11.4844 13.5938H9.375C9.25068 13.5938 9.13145 13.5444 9.04354 13.4565C8.95564 13.3686 8.90625 13.2494 8.90625 13.125V10.3125C8.90625 10.1882 8.85686 10.069 8.76896 9.98109C8.68105 9.89319 8.56182 9.8438 8.4375 9.8438H6.5625C6.43818 9.8438 6.31895 9.89319 6.23104 9.98109C6.14314 10.069 6.09375 10.1882 6.09375 10.3125V13.125C6.09375 13.2494 6.04436 13.3686 5.95646 13.4565C5.86855 13.5444 5.74932 13.5938 5.625 13.5938H3.51562C3.20482 13.5938 2.90675 13.4703 2.68698 13.2506C2.46722 13.0308 2.34375 12.7327 2.34375 12.4219V8.54817C2.36319 8.53078 2.38216 8.51286 2.40063 8.49442L7.5 3.3938V3.39505Z" fill="currentColor"/>
</svg>
