<svg width="17" height="17" viewBox="0 0 17 17" fill="none" xmlns="http://www.w3.org/2000/svg">
<path fill-rule="evenodd" clip-rule="evenodd" d="M4.78125 1.59375C4.92215 1.59375 5.05727 1.64972 5.1569 1.74935C5.25653 1.84898 5.3125 1.9841 5.3125 2.125V3.1875H11.6875V2.125C11.6875 1.9841 11.7435 1.84898 11.8431 1.74935C11.9427 1.64972 12.0779 1.59375 12.2187 1.59375C12.3596 1.59375 12.4948 1.64972 12.5944 1.74935C12.694 1.84898 12.75 1.9841 12.75 2.125V3.1875H13.2812C13.8448 3.1875 14.3853 3.41138 14.7839 3.8099C15.1824 4.20841 15.4062 4.74891 15.4062 5.3125V13.2812C15.4062 13.8448 15.1824 14.3853 14.7839 14.7839C14.3853 15.1824 13.8448 15.4062 13.2812 15.4062H3.71875C3.15516 15.4062 2.61466 15.1824 2.21615 14.7839C1.81763 14.3853 1.59375 13.8448 1.59375 13.2812V5.3125C1.59375 4.74891 1.81763 4.20841 2.21615 3.8099C2.61466 3.41138 3.15516 3.1875 3.71875 3.1875H4.25V2.125C4.25 1.9841 4.30597 1.84898 4.4056 1.74935C4.50523 1.64972 4.64035 1.59375 4.78125 1.59375ZM14.3437 7.96875C14.3437 7.68696 14.2318 7.41671 14.0326 7.21745C13.8333 7.01819 13.563 6.90625 13.2812 6.90625H3.71875C3.43696 6.90625 3.16671 7.01819 2.96745 7.21745C2.76819 7.41671 2.65625 7.68696 2.65625 7.96875V13.2812C2.65625 13.563 2.76819 13.8333 2.96745 14.0326C3.16671 14.2318 3.43696 14.3437 3.71875 14.3437H13.2812C13.563 14.3437 13.8333 14.2318 14.0326 14.0326C14.2318 13.8333 14.3437 13.563 14.3437 13.2812V7.96875Z" fill="currentColor"/>
</svg>
