<svg width="15" height="15" viewBox="0 0 15 15" fill="none" xmlns="http://www.w3.org/2000/svg">
<path fill-rule="evenodd" clip-rule="evenodd" d="M4.68744 3.75C4.68744 3.00408 4.98375 2.28871 5.5112 1.76126C6.03865 1.23382 6.75402 0.9375 7.49994 0.9375C8.24586 0.9375 8.96123 1.23382 9.48868 1.76126C10.0161 2.28871 10.3124 3.00408 10.3124 3.75C10.3124 4.49592 10.0161 5.21129 9.48868 5.73874C8.96123 6.26618 8.24586 6.5625 7.49994 6.5625C6.75402 6.5625 6.03865 6.26618 5.5112 5.73874C4.98375 5.21129 4.68744 4.49592 4.68744 3.75ZM2.34431 12.5656C2.36539 11.2122 2.91784 9.92128 3.88241 8.97161C4.84699 8.02194 6.14632 7.48966 7.49994 7.48966C8.85356 7.48966 10.1529 8.02194 11.1175 8.97161C12.082 9.92128 12.6345 11.2122 12.6556 12.5656C12.6572 12.6567 12.6322 12.7464 12.5837 12.8235C12.5352 12.9006 12.4653 12.962 12.3824 13C10.8507 13.7023 9.18504 14.0648 7.49994 14.0625C5.75869 14.0625 4.10431 13.6825 2.61744 13C2.53462 12.962 2.46467 12.9006 2.41616 12.8235C2.36766 12.7464 2.34269 12.6567 2.34431 12.5656Z" fill="currentColor"/>
</svg>
