<svg width="20" height="18" viewBox="0 0 20 18" fill="none" xmlns="http://www.w3.org/2000/svg">
<path fill-rule="evenodd" clip-rule="evenodd" d="M4.4475 16.2885C4.29868 16.2754 4.1505 16.2568 4.00333 16.233C3.89524 16.2156 3.79417 16.1728 3.71028 16.109C3.62639 16.0453 3.56265 15.9627 3.52547 15.8697C3.4883 15.7767 3.479 15.6766 3.49852 15.5793C3.51805 15.4821 3.56569 15.3912 3.63667 15.3158C3.97855 14.953 4.21201 14.5178 4.315 14.0513C4.33417 13.965 4.29667 13.8135 4.10333 13.644C2.72833 12.4402 1.875 10.8075 1.875 9C1.875 5.2275 5.565 2.25 10 2.25C14.435 2.25 18.125 5.2275 18.125 9C18.125 12.7725 14.435 15.75 10 15.75C9.30583 15.75 8.63083 15.6773 7.98583 15.5408C6.93154 16.1371 5.68651 16.4002 4.4475 16.2885Z" fill="black"/>
</svg>
