<svg width="26" height="24" viewBox="0 0 26 24" fill="none" xmlns="http://www.w3.org/2000/svg">
<path fill-rule="evenodd" clip-rule="evenodd" d="M12.7667 2.25C7.20215 2.25 2.69165 6.615 2.69165 12C2.69165 17.385 7.20215 21.75 12.7667 21.75C18.3312 21.75 22.8417 17.385 22.8417 12C22.8417 6.615 18.3312 2.25 12.7667 2.25ZM10.9893 9.22C10.9184 9.14631 10.8328 9.08721 10.7377 9.04622C10.6427 9.00523 10.54 8.98318 10.436 8.98141C10.3319 8.97963 10.2286 8.99816 10.1321 9.03588C10.0356 9.0736 9.9479 9.12974 9.87431 9.20096C9.80072 9.27218 9.7427 9.35701 9.70372 9.4504C9.66475 9.54379 9.6456 9.64382 9.64744 9.74452C9.64927 9.84522 9.67205 9.94454 9.71441 10.0365C9.75677 10.1285 9.81784 10.2113 9.89398 10.28L11.6713 12L9.89398 13.72C9.81784 13.7887 9.75677 13.8715 9.71441 13.9635C9.67205 14.0555 9.64927 14.1548 9.64744 14.2555C9.6456 14.3562 9.66475 14.4562 9.70372 14.5496C9.7427 14.643 9.80072 14.7278 9.87431 14.799C9.9479 14.8703 10.0356 14.9264 10.1321 14.9641C10.2286 15.0018 10.3319 15.0204 10.436 15.0186C10.54 15.0168 10.6427 14.9948 10.7377 14.9538C10.8328 14.9128 10.9184 14.8537 10.9893 14.78L12.7667 13.06L14.544 14.78C14.6149 14.8537 14.7005 14.9128 14.7956 14.9538C14.8906 14.9948 14.9933 15.0168 15.0973 15.0186C15.2014 15.0204 15.3047 15.0018 15.4012 14.9641C15.4977 14.9264 15.5854 14.8703 15.659 14.799C15.7326 14.7278 15.7906 14.643 15.8296 14.5496C15.8686 14.4562 15.8877 14.3562 15.8859 14.2555C15.884 14.1548 15.8612 14.0555 15.8189 13.9635C15.7765 13.8715 15.7155 13.7887 15.6393 13.72L13.862 12L15.6393 10.28C15.7155 10.2113 15.7765 10.1285 15.8189 10.0365C15.8612 9.94454 15.884 9.84522 15.8859 9.74452C15.8877 9.64382 15.8686 9.54379 15.8296 9.4504C15.7906 9.35701 15.7326 9.27218 15.659 9.20096C15.5854 9.12974 15.4977 9.0736 15.4012 9.03588C15.3047 8.99816 15.2014 8.97963 15.0973 8.98141C14.9933 8.98318 14.8906 9.00523 14.7956 9.04622C14.7005 9.08721 14.6149 9.14631 14.544 9.22L12.7667 10.94L10.9893 9.22Z" fill="#32247B"/>
</svg>
