<svg width="16" height="15" viewBox="0 0 16 15" fill="none" xmlns="http://www.w3.org/2000/svg">
<g filter="url(#filter0_d_58_552)">
<path d="M10.3468 5.45309H13.2588L11.4032 3.59634C10.8058 2.99893 10.0617 2.56932 9.2456 2.35069C8.42952 2.13206 7.57026 2.13213 6.75421 2.35088C5.93816 2.56962 5.19408 2.99935 4.59677 3.59684C3.99946 4.19434 3.56997 4.93856 3.35147 5.75467M2.74131 11.4591V8.54709M2.74131 8.54709H5.65331M2.74131 8.54709L4.59631 10.4038C5.19371 11.0012 5.93785 11.4309 6.75393 11.6495C7.57001 11.8681 8.42927 11.868 9.24532 11.6493C10.0614 11.4306 10.8054 11.0008 11.4028 10.4033C12.0001 9.80583 12.4296 9.06162 12.6481 8.2455M13.2588 2.54109V5.45192" stroke="#646464" stroke-width="1.5" stroke-linecap="round" stroke-linejoin="round"/>
</g>
<defs>
<filter id="filter0_d_58_552" x="0" y="0" width="16" height="16" filterUnits="userSpaceOnUse" color-interpolation-filters="sRGB">
<feFlood flood-opacity="0" result="BackgroundImageFix"/>
<feColorMatrix in="SourceAlpha" type="matrix" values="0 0 0 0 0 0 0 0 0 0 0 0 0 0 0 0 0 0 127 0" result="hardAlpha"/>
<feOffset dy="1"/>
<feGaussianBlur stdDeviation="0.5"/>
<feComposite in2="hardAlpha" operator="out"/>
<feColorMatrix type="matrix" values="0 0 0 0 0 0 0 0 0 0 0 0 0 0 0 0 0 0 0.25 0"/>
<feBlend mode="normal" in2="BackgroundImageFix" result="effect1_dropShadow_58_552"/>
<feBlend mode="normal" in="SourceGraphic" in2="effect1_dropShadow_58_552" result="shape"/>
</filter>
</defs>
</svg>
